<mxfile host="app.diagrams.net" modified="2024-07-22T03:46:16.881Z" agent="Mozilla/5.0 (Windows NT 10.0; Win64; x64) AppleWebKit/537.36 (KHTML, like Gecko) Chrome/126.0.0.0 Safari/537.36" etag="3MFcZUfLvQFSyhVEFDmN" version="24.7.1" type="github" pages="2">
  <diagram name="페이지-1" id="outWLEQIIWaqwBmrVcaB">
    <mxGraphModel dx="2179" dy="1964" grid="1" gridSize="10" guides="1" tooltips="1" connect="1" arrows="1" fold="1" page="1" pageScale="1" pageWidth="827" pageHeight="1169" math="0" shadow="0">
      <root>
        <mxCell id="0" />
        <mxCell id="1" parent="0" />
        <mxCell id="YDwt09W2zwEuQ_U7v801-1" value="고객" style="whiteSpace=wrap;html=1;align=center;" parent="1" vertex="1">
          <mxGeometry x="-85" y="20" width="209" height="120" as="geometry" />
        </mxCell>
        <mxCell id="YDwt09W2zwEuQ_U7v801-4" value="전화번호" style="ellipse;whiteSpace=wrap;html=1;align=center;fontStyle=4;" parent="1" vertex="1">
          <mxGeometry x="-490" y="350" width="125" height="70" as="geometry" />
        </mxCell>
        <mxCell id="YDwt09W2zwEuQ_U7v801-5" value="고객명" style="ellipse;whiteSpace=wrap;html=1;align=center;" parent="1" vertex="1">
          <mxGeometry x="-130" y="460" width="105" height="40" as="geometry" />
        </mxCell>
        <mxCell id="YDwt09W2zwEuQ_U7v801-6" value="" style="endArrow=none;html=1;rounded=0;exitX=0.5;exitY=1;exitDx=0;exitDy=0;entryX=0.5;entryY=0;entryDx=0;entryDy=0;" parent="1" source="YDwt09W2zwEuQ_U7v801-1" target="YDwt09W2zwEuQ_U7v801-5" edge="1">
          <mxGeometry relative="1" as="geometry">
            <mxPoint x="-82.75" y="310" as="sourcePoint" />
            <mxPoint x="-69.1798117371211" y="460.0102403282608" as="targetPoint" />
          </mxGeometry>
        </mxCell>
        <mxCell id="YDwt09W2zwEuQ_U7v801-7" value="" style="endArrow=none;html=1;rounded=0;entryX=0.5;entryY=1;entryDx=0;entryDy=0;exitX=0.5;exitY=0;exitDx=0;exitDy=0;" parent="1" source="YDwt09W2zwEuQ_U7v801-4" edge="1" target="YDwt09W2zwEuQ_U7v801-1">
          <mxGeometry relative="1" as="geometry">
            <mxPoint x="-435" y="370" as="sourcePoint" />
            <mxPoint x="-82.75" y="310" as="targetPoint" />
          </mxGeometry>
        </mxCell>
        <mxCell id="YDwt09W2zwEuQ_U7v801-8" value="이메일" style="ellipse;whiteSpace=wrap;html=1;align=center;fontStyle=4;" parent="1" vertex="1">
          <mxGeometry x="-515" y="277.5" width="175" height="32.5" as="geometry" />
        </mxCell>
        <mxCell id="YDwt09W2zwEuQ_U7v801-12" value="" style="endArrow=none;html=1;rounded=0;entryX=0.5;entryY=1;entryDx=0;entryDy=0;exitX=0.5;exitY=0;exitDx=0;exitDy=0;" parent="1" source="YDwt09W2zwEuQ_U7v801-8" edge="1" target="YDwt09W2zwEuQ_U7v801-1">
          <mxGeometry relative="1" as="geometry">
            <mxPoint x="-495" y="370" as="sourcePoint" />
            <mxPoint x="-82.75" y="310" as="targetPoint" />
          </mxGeometry>
        </mxCell>
        <mxCell id="YDwt09W2zwEuQ_U7v801-13" value="&lt;font color=&quot;#ff0000&quot;&gt;고객코드&lt;/font&gt;" style="ellipse;whiteSpace=wrap;html=1;align=center;fontStyle=4;" parent="1" vertex="1">
          <mxGeometry x="-500" y="190" width="145" height="60" as="geometry" />
        </mxCell>
        <mxCell id="YDwt09W2zwEuQ_U7v801-14" value="" style="endArrow=none;html=1;rounded=0;entryX=0.5;entryY=1;entryDx=0;entryDy=0;exitX=0.5;exitY=0;exitDx=0;exitDy=0;" parent="1" source="YDwt09W2zwEuQ_U7v801-13" edge="1" target="YDwt09W2zwEuQ_U7v801-1">
          <mxGeometry relative="1" as="geometry">
            <mxPoint x="-295" y="230" as="sourcePoint" />
            <mxPoint x="-82.75" y="310" as="targetPoint" />
          </mxGeometry>
        </mxCell>
        <mxCell id="YDwt09W2zwEuQ_U7v801-15" value="주소" style="ellipse;whiteSpace=wrap;html=1;align=center;" parent="1" vertex="1">
          <mxGeometry x="-525" y="450" width="195" height="60" as="geometry" />
        </mxCell>
        <mxCell id="YDwt09W2zwEuQ_U7v801-16" value="" style="endArrow=none;html=1;rounded=0;entryX=0.5;entryY=1;entryDx=0;entryDy=0;exitX=0.5;exitY=0;exitDx=0;exitDy=0;" parent="1" source="YDwt09W2zwEuQ_U7v801-15" edge="1" target="YDwt09W2zwEuQ_U7v801-1">
          <mxGeometry relative="1" as="geometry">
            <mxPoint x="-25" y="370" as="sourcePoint" />
            <mxPoint x="-82.75" y="260" as="targetPoint" />
          </mxGeometry>
        </mxCell>
        <mxCell id="YDwt09W2zwEuQ_U7v801-17" value="기본주소" style="ellipse;whiteSpace=wrap;html=1;align=center;" parent="1" vertex="1">
          <mxGeometry x="-599" y="590" width="135" height="50" as="geometry" />
        </mxCell>
        <mxCell id="YDwt09W2zwEuQ_U7v801-18" value="상세주소" style="ellipse;whiteSpace=wrap;html=1;align=center;" parent="1" vertex="1">
          <mxGeometry x="-430" y="590" width="125" height="50" as="geometry" />
        </mxCell>
        <mxCell id="YDwt09W2zwEuQ_U7v801-19" value="" style="endArrow=none;html=1;rounded=0;entryX=0.5;entryY=1;entryDx=0;entryDy=0;exitX=0.5;exitY=0;exitDx=0;exitDy=0;" parent="1" source="YDwt09W2zwEuQ_U7v801-17" target="YDwt09W2zwEuQ_U7v801-15" edge="1">
          <mxGeometry relative="1" as="geometry">
            <mxPoint x="-508.3393874594592" y="591.5177122852856" as="sourcePoint" />
            <mxPoint x="135" y="740" as="targetPoint" />
          </mxGeometry>
        </mxCell>
        <mxCell id="YDwt09W2zwEuQ_U7v801-20" value="" style="endArrow=none;html=1;rounded=0;exitX=0.5;exitY=1;exitDx=0;exitDy=0;entryX=0.5;entryY=0;entryDx=0;entryDy=0;" parent="1" source="YDwt09W2zwEuQ_U7v801-15" target="YDwt09W2zwEuQ_U7v801-18" edge="1">
          <mxGeometry relative="1" as="geometry">
            <mxPoint x="-25" y="740" as="sourcePoint" />
            <mxPoint x="135" y="740" as="targetPoint" />
          </mxGeometry>
        </mxCell>
        <mxCell id="YDwt09W2zwEuQ_U7v801-21" value="가입일" style="ellipse;whiteSpace=wrap;html=1;align=center;" parent="1" vertex="1">
          <mxGeometry x="-280" y="455" width="130" height="50" as="geometry" />
        </mxCell>
        <mxCell id="YDwt09W2zwEuQ_U7v801-22" value="" style="endArrow=none;html=1;rounded=0;entryX=0.5;entryY=0;entryDx=0;entryDy=0;exitX=0.5;exitY=1;exitDx=0;exitDy=0;" parent="1" target="YDwt09W2zwEuQ_U7v801-21" edge="1" source="YDwt09W2zwEuQ_U7v801-1">
          <mxGeometry relative="1" as="geometry">
            <mxPoint x="-83" y="310" as="sourcePoint" />
            <mxPoint x="135" y="740" as="targetPoint" />
          </mxGeometry>
        </mxCell>
        <mxCell id="6qA7BlLgwr5Q7RMmUUoX-2" value="지역" style="whiteSpace=wrap;html=1;align=center;" vertex="1" parent="1">
          <mxGeometry x="620" y="60" width="100" height="40" as="geometry" />
        </mxCell>
        <mxCell id="6qA7BlLgwr5Q7RMmUUoX-3" value="관리" style="shape=rhombus;perimeter=rhombusPerimeter;whiteSpace=wrap;html=1;align=center;" vertex="1" parent="1">
          <mxGeometry x="340" y="50" width="120" height="60" as="geometry" />
        </mxCell>
        <mxCell id="6qA7BlLgwr5Q7RMmUUoX-4" value="제품" style="whiteSpace=wrap;html=1;align=center;" vertex="1" parent="1">
          <mxGeometry x="614" y="290" width="100" height="40" as="geometry" />
        </mxCell>
        <mxCell id="6qA7BlLgwr5Q7RMmUUoX-5" value="&lt;font color=&quot;#ff0000&quot;&gt;제품코드&lt;/font&gt;" style="ellipse;whiteSpace=wrap;html=1;align=center;fontStyle=4;" vertex="1" parent="1">
          <mxGeometry x="414" y="410" width="100" height="40" as="geometry" />
        </mxCell>
        <mxCell id="6qA7BlLgwr5Q7RMmUUoX-7" value="제품명" style="ellipse;whiteSpace=wrap;html=1;align=center;" vertex="1" parent="1">
          <mxGeometry x="534" y="410" width="100" height="40" as="geometry" />
        </mxCell>
        <mxCell id="6qA7BlLgwr5Q7RMmUUoX-8" value="가격" style="ellipse;whiteSpace=wrap;html=1;align=center;" vertex="1" parent="1">
          <mxGeometry x="664" y="410" width="100" height="40" as="geometry" />
        </mxCell>
        <mxCell id="6qA7BlLgwr5Q7RMmUUoX-17" value="" style="endArrow=none;html=1;rounded=0;exitX=1;exitY=0;exitDx=0;exitDy=0;entryX=0.25;entryY=1;entryDx=0;entryDy=0;" edge="1" parent="1" target="6qA7BlLgwr5Q7RMmUUoX-4">
          <mxGeometry relative="1" as="geometry">
            <mxPoint x="499.35533905932743" y="415.85786437626916" as="sourcePoint" />
            <mxPoint x="474" y="460" as="targetPoint" />
          </mxGeometry>
        </mxCell>
        <mxCell id="6qA7BlLgwr5Q7RMmUUoX-18" value="" style="endArrow=none;html=1;rounded=0;entryX=0.25;entryY=1;entryDx=0;entryDy=0;exitX=0.5;exitY=0;exitDx=0;exitDy=0;" edge="1" parent="1" source="6qA7BlLgwr5Q7RMmUUoX-7" target="6qA7BlLgwr5Q7RMmUUoX-4">
          <mxGeometry relative="1" as="geometry">
            <mxPoint x="574" y="420" as="sourcePoint" />
            <mxPoint x="694" y="550" as="targetPoint" />
          </mxGeometry>
        </mxCell>
        <mxCell id="6qA7BlLgwr5Q7RMmUUoX-19" value="" style="endArrow=none;html=1;rounded=0;exitX=0;exitY=0;exitDx=0;exitDy=0;entryX=0.25;entryY=1;entryDx=0;entryDy=0;" edge="1" parent="1" source="6qA7BlLgwr5Q7RMmUUoX-8" target="6qA7BlLgwr5Q7RMmUUoX-4">
          <mxGeometry relative="1" as="geometry">
            <mxPoint x="494" y="550" as="sourcePoint" />
            <mxPoint x="634" y="340" as="targetPoint" />
          </mxGeometry>
        </mxCell>
        <mxCell id="6qA7BlLgwr5Q7RMmUUoX-20" value="구매" style="shape=rhombus;perimeter=rhombusPerimeter;whiteSpace=wrap;html=1;align=center;" vertex="1" parent="1">
          <mxGeometry x="180" y="265" width="120" height="60" as="geometry" />
        </mxCell>
        <mxCell id="6qA7BlLgwr5Q7RMmUUoX-21" value="" style="endArrow=none;html=1;rounded=0;exitX=1;exitY=1;exitDx=0;exitDy=0;entryX=0;entryY=0.5;entryDx=0;entryDy=0;" edge="1" parent="1" source="6qA7BlLgwr5Q7RMmUUoX-20" target="6qA7BlLgwr5Q7RMmUUoX-4">
          <mxGeometry relative="1" as="geometry">
            <mxPoint x="450" y="270" as="sourcePoint" />
            <mxPoint x="660" y="418.75" as="targetPoint" />
          </mxGeometry>
        </mxCell>
        <mxCell id="6qA7BlLgwr5Q7RMmUUoX-22" value="" style="endArrow=none;html=1;rounded=0;entryX=0;entryY=0;entryDx=0;entryDy=0;" edge="1" parent="1" source="YDwt09W2zwEuQ_U7v801-1" target="6qA7BlLgwr5Q7RMmUUoX-20">
          <mxGeometry relative="1" as="geometry">
            <mxPoint x="204" y="250" as="sourcePoint" />
            <mxPoint x="364" y="250" as="targetPoint" />
          </mxGeometry>
        </mxCell>
        <mxCell id="6qA7BlLgwr5Q7RMmUUoX-23" value="" style="endArrow=none;html=1;rounded=0;entryX=0;entryY=0.5;entryDx=0;entryDy=0;exitX=1;exitY=0.5;exitDx=0;exitDy=0;" edge="1" parent="1" source="YDwt09W2zwEuQ_U7v801-1" target="6qA7BlLgwr5Q7RMmUUoX-3">
          <mxGeometry relative="1" as="geometry">
            <mxPoint x="164.5" y="127.5" as="sourcePoint" />
            <mxPoint x="324.5" y="127.5" as="targetPoint" />
          </mxGeometry>
        </mxCell>
        <mxCell id="6qA7BlLgwr5Q7RMmUUoX-28" value="" style="endArrow=none;html=1;rounded=0;exitX=1;exitY=0.5;exitDx=0;exitDy=0;" edge="1" parent="1" source="6qA7BlLgwr5Q7RMmUUoX-3">
          <mxGeometry relative="1" as="geometry">
            <mxPoint x="470" y="78.75" as="sourcePoint" />
            <mxPoint x="620" y="79" as="targetPoint" />
          </mxGeometry>
        </mxCell>
        <mxCell id="6qA7BlLgwr5Q7RMmUUoX-29" value="&lt;font color=&quot;#ff0000&quot;&gt;지역코드&lt;/font&gt;" style="ellipse;whiteSpace=wrap;html=1;align=center;fontStyle=4;" vertex="1" parent="1">
          <mxGeometry x="490" y="130" width="100" height="40" as="geometry" />
        </mxCell>
        <mxCell id="6qA7BlLgwr5Q7RMmUUoX-30" value="" style="endArrow=none;html=1;rounded=0;entryX=0.5;entryY=1;entryDx=0;entryDy=0;" edge="1" parent="1" source="6qA7BlLgwr5Q7RMmUUoX-29" target="6qA7BlLgwr5Q7RMmUUoX-2">
          <mxGeometry relative="1" as="geometry">
            <mxPoint x="570" y="128.57" as="sourcePoint" />
            <mxPoint x="730" y="128.57" as="targetPoint" />
          </mxGeometry>
        </mxCell>
        <mxCell id="6qA7BlLgwr5Q7RMmUUoX-31" value="지역명" style="ellipse;whiteSpace=wrap;html=1;align=center;" vertex="1" parent="1">
          <mxGeometry x="660" y="130" width="100" height="40" as="geometry" />
        </mxCell>
        <mxCell id="6qA7BlLgwr5Q7RMmUUoX-32" value="" style="endArrow=none;html=1;rounded=0;entryX=0.5;entryY=1;entryDx=0;entryDy=0;" edge="1" parent="1" source="6qA7BlLgwr5Q7RMmUUoX-31" target="6qA7BlLgwr5Q7RMmUUoX-2">
          <mxGeometry relative="1" as="geometry">
            <mxPoint x="500" y="480" as="sourcePoint" />
            <mxPoint x="660" y="480" as="targetPoint" />
          </mxGeometry>
        </mxCell>
        <mxCell id="6qA7BlLgwr5Q7RMmUUoX-33" value="&lt;font color=&quot;#ff0000&quot;&gt;구매코드&lt;/font&gt;" style="ellipse;whiteSpace=wrap;html=1;align=center;fontStyle=4;" vertex="1" parent="1">
          <mxGeometry x="20" y="450" width="100" height="40" as="geometry" />
        </mxCell>
        <mxCell id="6qA7BlLgwr5Q7RMmUUoX-34" value="구매일자" style="ellipse;whiteSpace=wrap;html=1;align=center;" vertex="1" parent="1">
          <mxGeometry x="150" y="450" width="100" height="40" as="geometry" />
        </mxCell>
        <mxCell id="6qA7BlLgwr5Q7RMmUUoX-35" value="구매수량" style="ellipse;whiteSpace=wrap;html=1;align=center;" vertex="1" parent="1">
          <mxGeometry x="290" y="450" width="100" height="40" as="geometry" />
        </mxCell>
        <mxCell id="6qA7BlLgwr5Q7RMmUUoX-36" value="" style="endArrow=none;html=1;rounded=0;entryX=0.5;entryY=1;entryDx=0;entryDy=0;" edge="1" parent="1" source="6qA7BlLgwr5Q7RMmUUoX-33" target="6qA7BlLgwr5Q7RMmUUoX-20">
          <mxGeometry relative="1" as="geometry">
            <mxPoint x="250" y="640" as="sourcePoint" />
            <mxPoint x="230" y="325" as="targetPoint" />
          </mxGeometry>
        </mxCell>
        <mxCell id="6qA7BlLgwr5Q7RMmUUoX-37" value="" style="endArrow=none;html=1;rounded=0;entryX=0.5;entryY=1;entryDx=0;entryDy=0;" edge="1" parent="1" source="6qA7BlLgwr5Q7RMmUUoX-34" target="6qA7BlLgwr5Q7RMmUUoX-20">
          <mxGeometry relative="1" as="geometry">
            <mxPoint x="286" y="413" as="sourcePoint" />
            <mxPoint x="390" y="345" as="targetPoint" />
          </mxGeometry>
        </mxCell>
        <mxCell id="6qA7BlLgwr5Q7RMmUUoX-38" value="" style="endArrow=none;html=1;rounded=0;exitX=0;exitY=0;exitDx=0;exitDy=0;entryX=0.5;entryY=1;entryDx=0;entryDy=0;" edge="1" parent="1" source="6qA7BlLgwr5Q7RMmUUoX-35" target="6qA7BlLgwr5Q7RMmUUoX-20">
          <mxGeometry relative="1" as="geometry">
            <mxPoint x="296" y="423" as="sourcePoint" />
            <mxPoint x="240" y="320" as="targetPoint" />
          </mxGeometry>
        </mxCell>
        <mxCell id="6qA7BlLgwr5Q7RMmUUoX-39" value="M" style="text;html=1;align=center;verticalAlign=middle;whiteSpace=wrap;rounded=0;" vertex="1" parent="1">
          <mxGeometry x="310" y="270" width="60" height="30" as="geometry" />
        </mxCell>
        <mxCell id="6qA7BlLgwr5Q7RMmUUoX-40" value="N" style="text;html=1;align=center;verticalAlign=middle;whiteSpace=wrap;rounded=0;" vertex="1" parent="1">
          <mxGeometry x="190" y="220" width="60" height="30" as="geometry" />
        </mxCell>
        <mxCell id="6qA7BlLgwr5Q7RMmUUoX-41" value="N" style="text;html=1;align=center;verticalAlign=middle;whiteSpace=wrap;rounded=0;" vertex="1" parent="1">
          <mxGeometry x="270" y="40" width="60" height="30" as="geometry" />
        </mxCell>
        <mxCell id="6qA7BlLgwr5Q7RMmUUoX-42" value="1" style="text;html=1;align=center;verticalAlign=middle;whiteSpace=wrap;rounded=0;" vertex="1" parent="1">
          <mxGeometry x="450" y="40" width="60" height="30" as="geometry" />
        </mxCell>
        <mxCell id="6qA7BlLgwr5Q7RMmUUoX-43" value="제품색상" style="ellipse;shape=doubleEllipse;margin=3;whiteSpace=wrap;html=1;align=center;" vertex="1" parent="1">
          <mxGeometry x="780" y="410" width="100" height="40" as="geometry" />
        </mxCell>
        <mxCell id="6qA7BlLgwr5Q7RMmUUoX-44" value="" style="endArrow=none;html=1;rounded=0;entryX=0.5;entryY=0;entryDx=0;entryDy=0;exitX=0.25;exitY=1;exitDx=0;exitDy=0;" edge="1" parent="1" source="6qA7BlLgwr5Q7RMmUUoX-4" target="6qA7BlLgwr5Q7RMmUUoX-43">
          <mxGeometry relative="1" as="geometry">
            <mxPoint x="730" y="360" as="sourcePoint" />
            <mxPoint x="890" y="360" as="targetPoint" />
          </mxGeometry>
        </mxCell>
      </root>
    </mxGraphModel>
  </diagram>
  <diagram id="5XjYnxVbVYBJnTeG3LTx" name="페이지-2">
    <mxGraphModel dx="1063" dy="492" grid="1" gridSize="10" guides="1" tooltips="1" connect="1" arrows="1" fold="1" page="1" pageScale="1" pageWidth="827" pageHeight="1169" math="0" shadow="0">
      <root>
        <mxCell id="0" />
        <mxCell id="1" parent="0" />
        <mxCell id="DEEFsSCvwRPG6E-YSO_o-5" value="고객" style="shape=table;startSize=30;container=1;collapsible=1;childLayout=tableLayout;fixedRows=1;rowLines=0;fontStyle=1;align=center;resizeLast=1;html=1;" vertex="1" parent="1">
          <mxGeometry x="60" y="270" width="180" height="240" as="geometry" />
        </mxCell>
        <mxCell id="DEEFsSCvwRPG6E-YSO_o-6" value="" style="shape=tableRow;horizontal=0;startSize=0;swimlaneHead=0;swimlaneBody=0;fillColor=none;collapsible=0;dropTarget=0;points=[[0,0.5],[1,0.5]];portConstraint=eastwest;top=0;left=0;right=0;bottom=1;" vertex="1" parent="DEEFsSCvwRPG6E-YSO_o-5">
          <mxGeometry y="30" width="180" height="30" as="geometry" />
        </mxCell>
        <mxCell id="DEEFsSCvwRPG6E-YSO_o-7" value="PK" style="shape=partialRectangle;connectable=0;fillColor=none;top=0;left=0;bottom=0;right=0;fontStyle=1;overflow=hidden;whiteSpace=wrap;html=1;" vertex="1" parent="DEEFsSCvwRPG6E-YSO_o-6">
          <mxGeometry width="30" height="30" as="geometry">
            <mxRectangle width="30" height="30" as="alternateBounds" />
          </mxGeometry>
        </mxCell>
        <mxCell id="DEEFsSCvwRPG6E-YSO_o-8" value="고객코드" style="shape=partialRectangle;connectable=0;fillColor=none;top=0;left=0;bottom=0;right=0;align=left;spacingLeft=6;fontStyle=5;overflow=hidden;whiteSpace=wrap;html=1;" vertex="1" parent="DEEFsSCvwRPG6E-YSO_o-6">
          <mxGeometry x="30" width="150" height="30" as="geometry">
            <mxRectangle width="150" height="30" as="alternateBounds" />
          </mxGeometry>
        </mxCell>
        <mxCell id="DEEFsSCvwRPG6E-YSO_o-9" value="" style="shape=tableRow;horizontal=0;startSize=0;swimlaneHead=0;swimlaneBody=0;fillColor=none;collapsible=0;dropTarget=0;points=[[0,0.5],[1,0.5]];portConstraint=eastwest;top=0;left=0;right=0;bottom=0;" vertex="1" parent="DEEFsSCvwRPG6E-YSO_o-5">
          <mxGeometry y="60" width="180" height="30" as="geometry" />
        </mxCell>
        <mxCell id="DEEFsSCvwRPG6E-YSO_o-10" value="" style="shape=partialRectangle;connectable=0;fillColor=none;top=0;left=0;bottom=0;right=0;editable=1;overflow=hidden;whiteSpace=wrap;html=1;" vertex="1" parent="DEEFsSCvwRPG6E-YSO_o-9">
          <mxGeometry width="30" height="30" as="geometry">
            <mxRectangle width="30" height="30" as="alternateBounds" />
          </mxGeometry>
        </mxCell>
        <mxCell id="DEEFsSCvwRPG6E-YSO_o-11" value="고객이름" style="shape=partialRectangle;connectable=0;fillColor=none;top=0;left=0;bottom=0;right=0;align=left;spacingLeft=6;overflow=hidden;whiteSpace=wrap;html=1;" vertex="1" parent="DEEFsSCvwRPG6E-YSO_o-9">
          <mxGeometry x="30" width="150" height="30" as="geometry">
            <mxRectangle width="150" height="30" as="alternateBounds" />
          </mxGeometry>
        </mxCell>
        <mxCell id="DEEFsSCvwRPG6E-YSO_o-12" value="" style="shape=tableRow;horizontal=0;startSize=0;swimlaneHead=0;swimlaneBody=0;fillColor=none;collapsible=0;dropTarget=0;points=[[0,0.5],[1,0.5]];portConstraint=eastwest;top=0;left=0;right=0;bottom=0;" vertex="1" parent="DEEFsSCvwRPG6E-YSO_o-5">
          <mxGeometry y="90" width="180" height="30" as="geometry" />
        </mxCell>
        <mxCell id="DEEFsSCvwRPG6E-YSO_o-13" value="" style="shape=partialRectangle;connectable=0;fillColor=none;top=0;left=0;bottom=0;right=0;editable=1;overflow=hidden;whiteSpace=wrap;html=1;" vertex="1" parent="DEEFsSCvwRPG6E-YSO_o-12">
          <mxGeometry width="30" height="30" as="geometry">
            <mxRectangle width="30" height="30" as="alternateBounds" />
          </mxGeometry>
        </mxCell>
        <mxCell id="DEEFsSCvwRPG6E-YSO_o-14" value="전화번호" style="shape=partialRectangle;connectable=0;fillColor=none;top=0;left=0;bottom=0;right=0;align=left;spacingLeft=6;overflow=hidden;whiteSpace=wrap;html=1;" vertex="1" parent="DEEFsSCvwRPG6E-YSO_o-12">
          <mxGeometry x="30" width="150" height="30" as="geometry">
            <mxRectangle width="150" height="30" as="alternateBounds" />
          </mxGeometry>
        </mxCell>
        <mxCell id="DEEFsSCvwRPG6E-YSO_o-15" value="" style="shape=tableRow;horizontal=0;startSize=0;swimlaneHead=0;swimlaneBody=0;fillColor=none;collapsible=0;dropTarget=0;points=[[0,0.5],[1,0.5]];portConstraint=eastwest;top=0;left=0;right=0;bottom=0;" vertex="1" parent="DEEFsSCvwRPG6E-YSO_o-5">
          <mxGeometry y="120" width="180" height="30" as="geometry" />
        </mxCell>
        <mxCell id="DEEFsSCvwRPG6E-YSO_o-16" value="" style="shape=partialRectangle;connectable=0;fillColor=none;top=0;left=0;bottom=0;right=0;editable=1;overflow=hidden;whiteSpace=wrap;html=1;" vertex="1" parent="DEEFsSCvwRPG6E-YSO_o-15">
          <mxGeometry width="30" height="30" as="geometry">
            <mxRectangle width="30" height="30" as="alternateBounds" />
          </mxGeometry>
        </mxCell>
        <mxCell id="DEEFsSCvwRPG6E-YSO_o-17" value="기본주소" style="shape=partialRectangle;connectable=0;fillColor=none;top=0;left=0;bottom=0;right=0;align=left;spacingLeft=6;overflow=hidden;whiteSpace=wrap;html=1;" vertex="1" parent="DEEFsSCvwRPG6E-YSO_o-15">
          <mxGeometry x="30" width="150" height="30" as="geometry">
            <mxRectangle width="150" height="30" as="alternateBounds" />
          </mxGeometry>
        </mxCell>
        <mxCell id="DEEFsSCvwRPG6E-YSO_o-18" value="" style="shape=tableRow;horizontal=0;startSize=0;swimlaneHead=0;swimlaneBody=0;fillColor=none;collapsible=0;dropTarget=0;points=[[0,0.5],[1,0.5]];portConstraint=eastwest;top=0;left=0;right=0;bottom=0;" vertex="1" parent="DEEFsSCvwRPG6E-YSO_o-5">
          <mxGeometry y="150" width="180" height="30" as="geometry" />
        </mxCell>
        <mxCell id="DEEFsSCvwRPG6E-YSO_o-19" value="" style="shape=partialRectangle;connectable=0;fillColor=none;top=0;left=0;bottom=0;right=0;editable=1;overflow=hidden;whiteSpace=wrap;html=1;" vertex="1" parent="DEEFsSCvwRPG6E-YSO_o-18">
          <mxGeometry width="30" height="30" as="geometry">
            <mxRectangle width="30" height="30" as="alternateBounds" />
          </mxGeometry>
        </mxCell>
        <mxCell id="DEEFsSCvwRPG6E-YSO_o-20" value="상세주소" style="shape=partialRectangle;connectable=0;fillColor=none;top=0;left=0;bottom=0;right=0;align=left;spacingLeft=6;overflow=hidden;whiteSpace=wrap;html=1;" vertex="1" parent="DEEFsSCvwRPG6E-YSO_o-18">
          <mxGeometry x="30" width="150" height="30" as="geometry">
            <mxRectangle width="150" height="30" as="alternateBounds" />
          </mxGeometry>
        </mxCell>
        <mxCell id="DEEFsSCvwRPG6E-YSO_o-21" value="" style="shape=tableRow;horizontal=0;startSize=0;swimlaneHead=0;swimlaneBody=0;fillColor=none;collapsible=0;dropTarget=0;points=[[0,0.5],[1,0.5]];portConstraint=eastwest;top=0;left=0;right=0;bottom=0;" vertex="1" parent="DEEFsSCvwRPG6E-YSO_o-5">
          <mxGeometry y="180" width="180" height="30" as="geometry" />
        </mxCell>
        <mxCell id="DEEFsSCvwRPG6E-YSO_o-22" value="" style="shape=partialRectangle;connectable=0;fillColor=none;top=0;left=0;bottom=0;right=0;editable=1;overflow=hidden;whiteSpace=wrap;html=1;" vertex="1" parent="DEEFsSCvwRPG6E-YSO_o-21">
          <mxGeometry width="30" height="30" as="geometry">
            <mxRectangle width="30" height="30" as="alternateBounds" />
          </mxGeometry>
        </mxCell>
        <mxCell id="DEEFsSCvwRPG6E-YSO_o-23" value="가입일" style="shape=partialRectangle;connectable=0;fillColor=none;top=0;left=0;bottom=0;right=0;align=left;spacingLeft=6;overflow=hidden;whiteSpace=wrap;html=1;" vertex="1" parent="DEEFsSCvwRPG6E-YSO_o-21">
          <mxGeometry x="30" width="150" height="30" as="geometry">
            <mxRectangle width="150" height="30" as="alternateBounds" />
          </mxGeometry>
        </mxCell>
        <mxCell id="DEEFsSCvwRPG6E-YSO_o-24" value="" style="shape=tableRow;horizontal=0;startSize=0;swimlaneHead=0;swimlaneBody=0;fillColor=none;collapsible=0;dropTarget=0;points=[[0,0.5],[1,0.5]];portConstraint=eastwest;top=0;left=0;right=0;bottom=0;" vertex="1" parent="DEEFsSCvwRPG6E-YSO_o-5">
          <mxGeometry y="210" width="180" height="30" as="geometry" />
        </mxCell>
        <mxCell id="DEEFsSCvwRPG6E-YSO_o-25" value="FK" style="shape=partialRectangle;connectable=0;fillColor=none;top=0;left=0;bottom=0;right=0;editable=1;overflow=hidden;whiteSpace=wrap;html=1;" vertex="1" parent="DEEFsSCvwRPG6E-YSO_o-24">
          <mxGeometry width="30" height="30" as="geometry">
            <mxRectangle width="30" height="30" as="alternateBounds" />
          </mxGeometry>
        </mxCell>
        <mxCell id="DEEFsSCvwRPG6E-YSO_o-26" value="지역코드" style="shape=partialRectangle;connectable=0;fillColor=none;top=0;left=0;bottom=0;right=0;align=left;spacingLeft=6;overflow=hidden;whiteSpace=wrap;html=1;" vertex="1" parent="DEEFsSCvwRPG6E-YSO_o-24">
          <mxGeometry x="30" width="150" height="30" as="geometry">
            <mxRectangle width="150" height="30" as="alternateBounds" />
          </mxGeometry>
        </mxCell>
        <mxCell id="DEEFsSCvwRPG6E-YSO_o-27" value="지" style="shape=table;startSize=30;container=1;collapsible=1;childLayout=tableLayout;fixedRows=1;rowLines=0;fontStyle=1;align=center;resizeLast=1;html=1;" vertex="1" parent="1">
          <mxGeometry x="370" y="290" width="180" height="150" as="geometry" />
        </mxCell>
        <mxCell id="DEEFsSCvwRPG6E-YSO_o-28" value="" style="shape=tableRow;horizontal=0;startSize=0;swimlaneHead=0;swimlaneBody=0;fillColor=none;collapsible=0;dropTarget=0;points=[[0,0.5],[1,0.5]];portConstraint=eastwest;top=0;left=0;right=0;bottom=1;" vertex="1" parent="DEEFsSCvwRPG6E-YSO_o-27">
          <mxGeometry y="30" width="180" height="30" as="geometry" />
        </mxCell>
        <mxCell id="DEEFsSCvwRPG6E-YSO_o-29" value="PK" style="shape=partialRectangle;connectable=0;fillColor=none;top=0;left=0;bottom=0;right=0;fontStyle=1;overflow=hidden;whiteSpace=wrap;html=1;" vertex="1" parent="DEEFsSCvwRPG6E-YSO_o-28">
          <mxGeometry width="30" height="30" as="geometry">
            <mxRectangle width="30" height="30" as="alternateBounds" />
          </mxGeometry>
        </mxCell>
        <mxCell id="DEEFsSCvwRPG6E-YSO_o-30" value="UniqueID" style="shape=partialRectangle;connectable=0;fillColor=none;top=0;left=0;bottom=0;right=0;align=left;spacingLeft=6;fontStyle=5;overflow=hidden;whiteSpace=wrap;html=1;" vertex="1" parent="DEEFsSCvwRPG6E-YSO_o-28">
          <mxGeometry x="30" width="150" height="30" as="geometry">
            <mxRectangle width="150" height="30" as="alternateBounds" />
          </mxGeometry>
        </mxCell>
        <mxCell id="DEEFsSCvwRPG6E-YSO_o-31" value="" style="shape=tableRow;horizontal=0;startSize=0;swimlaneHead=0;swimlaneBody=0;fillColor=none;collapsible=0;dropTarget=0;points=[[0,0.5],[1,0.5]];portConstraint=eastwest;top=0;left=0;right=0;bottom=0;" vertex="1" parent="DEEFsSCvwRPG6E-YSO_o-27">
          <mxGeometry y="60" width="180" height="30" as="geometry" />
        </mxCell>
        <mxCell id="DEEFsSCvwRPG6E-YSO_o-32" value="" style="shape=partialRectangle;connectable=0;fillColor=none;top=0;left=0;bottom=0;right=0;editable=1;overflow=hidden;whiteSpace=wrap;html=1;" vertex="1" parent="DEEFsSCvwRPG6E-YSO_o-31">
          <mxGeometry width="30" height="30" as="geometry">
            <mxRectangle width="30" height="30" as="alternateBounds" />
          </mxGeometry>
        </mxCell>
        <mxCell id="DEEFsSCvwRPG6E-YSO_o-33" value="Row 1" style="shape=partialRectangle;connectable=0;fillColor=none;top=0;left=0;bottom=0;right=0;align=left;spacingLeft=6;overflow=hidden;whiteSpace=wrap;html=1;" vertex="1" parent="DEEFsSCvwRPG6E-YSO_o-31">
          <mxGeometry x="30" width="150" height="30" as="geometry">
            <mxRectangle width="150" height="30" as="alternateBounds" />
          </mxGeometry>
        </mxCell>
        <mxCell id="DEEFsSCvwRPG6E-YSO_o-34" value="" style="shape=tableRow;horizontal=0;startSize=0;swimlaneHead=0;swimlaneBody=0;fillColor=none;collapsible=0;dropTarget=0;points=[[0,0.5],[1,0.5]];portConstraint=eastwest;top=0;left=0;right=0;bottom=0;" vertex="1" parent="DEEFsSCvwRPG6E-YSO_o-27">
          <mxGeometry y="90" width="180" height="30" as="geometry" />
        </mxCell>
        <mxCell id="DEEFsSCvwRPG6E-YSO_o-35" value="" style="shape=partialRectangle;connectable=0;fillColor=none;top=0;left=0;bottom=0;right=0;editable=1;overflow=hidden;whiteSpace=wrap;html=1;" vertex="1" parent="DEEFsSCvwRPG6E-YSO_o-34">
          <mxGeometry width="30" height="30" as="geometry">
            <mxRectangle width="30" height="30" as="alternateBounds" />
          </mxGeometry>
        </mxCell>
        <mxCell id="DEEFsSCvwRPG6E-YSO_o-36" value="Row 2" style="shape=partialRectangle;connectable=0;fillColor=none;top=0;left=0;bottom=0;right=0;align=left;spacingLeft=6;overflow=hidden;whiteSpace=wrap;html=1;" vertex="1" parent="DEEFsSCvwRPG6E-YSO_o-34">
          <mxGeometry x="30" width="150" height="30" as="geometry">
            <mxRectangle width="150" height="30" as="alternateBounds" />
          </mxGeometry>
        </mxCell>
        <mxCell id="DEEFsSCvwRPG6E-YSO_o-37" value="" style="shape=tableRow;horizontal=0;startSize=0;swimlaneHead=0;swimlaneBody=0;fillColor=none;collapsible=0;dropTarget=0;points=[[0,0.5],[1,0.5]];portConstraint=eastwest;top=0;left=0;right=0;bottom=0;" vertex="1" parent="DEEFsSCvwRPG6E-YSO_o-27">
          <mxGeometry y="120" width="180" height="30" as="geometry" />
        </mxCell>
        <mxCell id="DEEFsSCvwRPG6E-YSO_o-38" value="" style="shape=partialRectangle;connectable=0;fillColor=none;top=0;left=0;bottom=0;right=0;editable=1;overflow=hidden;whiteSpace=wrap;html=1;" vertex="1" parent="DEEFsSCvwRPG6E-YSO_o-37">
          <mxGeometry width="30" height="30" as="geometry">
            <mxRectangle width="30" height="30" as="alternateBounds" />
          </mxGeometry>
        </mxCell>
        <mxCell id="DEEFsSCvwRPG6E-YSO_o-39" value="Row 3" style="shape=partialRectangle;connectable=0;fillColor=none;top=0;left=0;bottom=0;right=0;align=left;spacingLeft=6;overflow=hidden;whiteSpace=wrap;html=1;" vertex="1" parent="DEEFsSCvwRPG6E-YSO_o-37">
          <mxGeometry x="30" width="150" height="30" as="geometry">
            <mxRectangle width="150" height="30" as="alternateBounds" />
          </mxGeometry>
        </mxCell>
      </root>
    </mxGraphModel>
  </diagram>
</mxfile>
